<?xml version="1.0" encoding="utf-8"?>
<svg width="210mm" height="297mm" version="1.1" style="shape-rendering:geometricPrecision; text-rendering:geometricPrecision; image-rendering:optimizeQuality; fill-rule:evenodd; clip-rule:evenodd" viewBox="243.442 382.553 13140.28 15162.997" xmlns="http://www.w3.org/2000/svg">
  <defs>
    <style type="text/css">
   
    .str0 {stroke:#FEFEFE;stroke-width:353.62}
    .fil3 {fill:#FEFEFE}
    .fil6 {fill:#002A34}
    .fil10 {fill:#286877}
    .fil0 {fill:#3E3E3A}
    .fil7 {fill:#531F21}
    .fil13 {fill:#585F19}
    .fil14 {fill:#6A6B63}
    .fil2 {fill:#93C54A}
    .fil8 {fill:#AB5C2A}
    .fil11 {fill:#D5854D}
    .fil9 {fill:#D86365}
    .fil5 {fill:#D9534F}
    .fil12 {fill:#F2CE2E}
    .fil4 {fill:#FFAB3A}
    .fil1 {fill:#FEFEFE;fill-rule:nonzero}
   
  </style>
  </defs>
  <g id="Warstwa_x0020_1" transform="matrix(1, 0, 0, 1, -3929.859619, -3269.08667)">
    <polygon class="fil0 str0" points="10788,3863 13967,5698 17146,7534 17146,11205 17146,14876 13967,16711 10788,18546 7609,16711 4430,14876 4430,11205 4430,7534 7609,5698 "/>
    <path class="fil1" d="M6300 13583l0 930 -213 0 0 -930 213 0zm10 -384l0 218 -231 0 0 -218 231 0z"/>
    <path id="1" class="fil1" d="M6777 13583l0 163c79,-122 177,-183 292,-183 65,0 118,18 160,56 35,32 58,73 70,125 79,-121 178,-181 294,-181 82,0 146,27 191,83 42,49 63,114 63,196l0 671 -214 0 0 -611c0,-104 -43,-157 -129,-157 -38,0 -77,17 -115,50 -32,29 -59,65 -79,108l0 610 -210 0 0 -611c0,-104 -38,-157 -115,-157 -39,0 -78,17 -117,49 -34,29 -62,65 -85,109l0 610 -210 0 0 -930 204 0z"/>
    <path id="2" class="fil1" d="M8321 13583l0 137c64,-105 151,-157 261,-157 112,0 201,45 265,136 59,85 88,199 88,343 0,164 -40,291 -120,382 -66,74 -147,111 -243,111 -107,0 -188,-51 -244,-153l0 457 -212 0 0 -1256 205 0zm7 303l0 329c44,103 107,155 187,155 64,0 114,-29 150,-88 35,-56 52,-135 52,-235 0,-113 -21,-198 -62,-253 -33,-43 -75,-65 -127,-65 -88,0 -155,52 -200,157z"/>
    <path id="3" class="fil1" d="M9926 13583l0 930 -207 0 0 -161c-36,60 -82,107 -140,141 -50,29 -104,43 -162,43 -84,0 -151,-26 -200,-77 -45,-49 -68,-115 -68,-197l0 -679 218 0 0 618c0,102 44,153 131,153 42,0 84,-17 127,-52 36,-29 66,-65 88,-108l0 -611 213 0z"/>
    <path id="4" class="fil1" d="M10454 13280l0 303 208 0 0 156 -208 0 0 510c0,89 38,134 115,134 41,0 77,-4 108,-11l-8 152c-47,7 -102,11 -166,11 -94,0 -162,-23 -204,-68 -37,-40 -55,-100 -55,-180l0 -548 -139 0 0 -156 139 0 0 -255 210 -48z"/>
    <path id="5" class="fil1" d="M11209 13563c135,0 241,49 318,146 68,87 102,199 102,338 0,160 -44,285 -131,374 -75,77 -172,115 -291,115 -137,0 -243,-48 -319,-146 -67,-86 -101,-198 -101,-338 0,-160 44,-285 132,-374 75,-77 172,-115 290,-115zm0 154c-136,0 -204,110 -204,332 0,222 68,334 202,334 136,0 203,-112 203,-334 0,-222 -67,-332 -201,-332z"/>
    <path id="6" class="fil1" d="M12050 13583l0 163c80,-122 177,-183 293,-183 65,0 118,18 160,56 34,32 57,73 69,125 80,-121 178,-181 294,-181 82,0 146,27 192,83 41,49 62,114 62,196l0 671 -213 0 0 -611c0,-104 -43,-157 -129,-157 -39,0 -77,17 -115,50 -33,29 -59,65 -79,108l0 610 -210 0 0 -611c0,-104 -39,-157 -115,-157 -39,0 -79,17 -118,49 -34,29 -62,65 -84,109l0 610 -210 0 0 -930 203 0z"/>
    <path id="7" class="fil1" d="M13601 13583l0 930 -213 0 0 -930 213 0zm9 -384l0 218 -230 0 0 -218 230 0z"/>
    <path id="8" class="fil1" d="M14616 13859l-207 48c-20,-126 -75,-189 -165,-189 -138,0 -208,110 -208,331 0,221 70,332 208,332 99,0 158,-65 178,-195l199 54c-25,103 -73,180 -147,230 -63,44 -141,66 -235,66 -141,0 -249,-48 -324,-145 -65,-85 -97,-198 -97,-339 0,-161 43,-286 129,-374 74,-77 172,-115 292,-115 107,0 194,29 261,87 58,51 96,121 116,209z"/>
    <path id="9" class="fil1" d="M15479 13800l-202 57c-23,-99 -78,-149 -165,-149 -48,0 -85,11 -112,33 -22,18 -34,40 -34,67 0,39 13,68 38,88 23,17 65,34 128,51l77 20c113,30 190,68 232,115 38,42 57,98 57,168 0,93 -36,164 -107,215 -65,48 -155,71 -269,71 -203,0 -332,-77 -388,-232l198 -69c30,104 95,156 195,156 113,0 169,-40 169,-120 0,-39 -13,-68 -40,-87 -22,-15 -69,-32 -139,-52l-78 -22c-107,-29 -181,-66 -221,-112 -35,-41 -52,-98 -52,-171 0,-83 34,-149 102,-197 62,-45 145,-67 247,-67 189,0 310,79 364,237z"/>
    <g id="_1791459120608">
      <path class="fil2" d="M14706 11271c-27,90 -20,621 -1,724l723 5 5 -729c-95,-19 -646,-24 -727,0z"/>
      <polygon class="fil3" points="6959,11212 6960,10503 6207,10494 6212,11224 "/>
      <path class="fil3" d="M12394 11998l713 0c27,-99 11,-598 9,-737l-731 1 9 736z"/>
      <polygon class="fil3" points="14694,11217 15436,11225 15427,10493 14691,10495 "/>
      <polygon class="fil2" points="13153,11995 13886,11989 13887,11262 13154,11260 13153,11411 13153,11939 "/>
      <polygon class="fil2" points="13925,11994 14658,11997 14657,11261 13926,11267 "/>
      <polygon class="fil2" points="10017,7745 10746,7745 10751,7016 10015,7014 "/>
      <path class="fil3" d="M12389 10423c12,46 -15,25 63,33 99,10 495,-17 662,3l5 -736 -737 0 7 700z"/>
      <polygon class="fil2" points="9249,7744 9977,7745 9981,7013 9248,7014 "/>
      <polygon class="fil3" points="6225,11997 6962,11988 6954,11267 6231,11259 "/>
      <path class="fil4" d="M7774 11225l714 -1c19,-80 19,-646 2,-732l-723 3 7 730z"/>
      <polygon class="fil3" points="12378,8907 13115,8913 13114,8187 12378,8187 "/>
      <polygon class="fil2" points="10789,7747 11518,7745 11520,7022 10787,7013 "/>
      <polygon class="fil5" points="6229,10454 6957,10452 6956,9724 6226,9723 "/>
      <polygon class="fil3" points="12389,8139 13027,8143 13111,8139 13118,7416 12380,7411 "/>
      <path class="fil3" d="M6993 11981l736 17 -14 -738 -709 7c-35,71 -4,582 -13,714z"/>
      <polygon class="fil5" points="12338,10457 12344,9721 11617,9728 11616,10452 "/>
      <polygon class="fil5" points="6227,9683 6958,9676 6956,8954 6238,8952 "/>
      <polygon class="fil5" points="11614,9670 12342,9687 12337,8947 11616,8956 "/>
      <polygon class="fil5" points="10847,9685 11576,9671 11575,8952 10858,8949 "/>
      <polygon class="fil4" points="8545,10456 9267,10450 9267,9734 8539,9724 "/>
      <path class="fil3" d="M12380 9684l738 -6 -6 -724 -19 0 -685 2 -16 -1c-12,203 23,554 -12,729z"/>
      <polygon class="fil4" points="13886,9669 13886,8952 13165,8949 13160,9678 "/>
      <polygon class="fil4" points="11615,11980 12339,11989 12339,11256 11616,11266 "/>
      <polygon class="fil4" points="14645,10456 14652,9724 13927,9738 13927,10453 "/>
      <polygon class="fil4" points="10800,11266 10081,11266 10081,11987 10806,11989 "/>
      <path class="fil2" d="M13929 11217l726 1 -8 -731c-114,25 -585,16 -723,6l5 724z"/>
      <polygon class="fil2" points="10750,8503 10753,7797 10030,7791 10031,8514 "/>
      <polygon class="fil3" points="6998,11216 7720,11214 7712,10500 6998,10497 "/>
      <polygon class="fil3" points="7721,8189 6997,8190 7001,8902 7715,8904 "/>
      <polygon class="fil3" points="13171,10453 13888,10452 13886,9744 13166,9732 "/>
      <polygon class="fil3" points="11621,8900 12342,8905 12336,8187 11623,8191 "/>
      <path class="fil4" d="M13118 11180l-4 -660c-114,-34 -573,-18 -714,-9l-4 691c175,10 594,42 722,-22z"/>
      <path class="fil4" d="M10073 10537l4 661 716 12 1 -705c-120,5 -249,5 -370,5l-264 -1c-30,2 -18,0 -42,7l-45 21z"/>
      <path class="fil4" d="M11624 11208l713 5c-22,-94 -19,-606 -4,-710l-708 -1 -1 706z"/>
      <path class="fil4" d="M13165 11212l709 -5 5 -704 -709 1c7,144 22,588 -5,708z"/>
      <path class="fil4" d="M9326 11296l-7 660c130,71 539,9 709,22l-6 -701 -654 4c-57,10 -16,2 -42,15z"/>
      <path class="fil4" d="M10803 10428l0 -24c-8,-17 -6,-1 -10,-34l4 -632c-119,-7 -235,-3 -357,-3 -93,0 -270,-14 -346,18l9 679c95,34 590,10 700,-4z"/>
      <path class="fil4" d="M8492 10437l2 -25 -14 -21c0,-73 11,-578 -20,-647 -97,-22 -581,-18 -683,2 9,31 15,42 20,74l-8 453c1,110 7,89 -17,169 85,14 648,16 720,-5z"/>
      <path class="fil5" d="M11546 9731l-12 -4 -680 3c38,182 -18,624 32,712l674 -5c-28,-188 42,-554 -14,-706z"/>
      <path class="fil4" d="M14699 10409l3 43 690 1c7,-198 43,-521 2,-711l-686 1c16,96 7,367 7,497 0,65 10,121 -16,169z"/>
      <path class="fil4" d="M13956 9674l137 5c83,-42 405,-1 532,-15 11,-123 36,-603 -8,-681 -86,-25 -567,-11 -675,0 -4,190 -32,516 14,691z"/>
      <path class="fil5" d="M7009 9671l703 -1c-17,-69 -64,-62 -3,-63 0,-138 17,-521 -12,-630l-669 -6c-48,203 17,529 -19,700z"/>
      <path class="fil4" d="M8493 11323l1 -26c-49,-26 -668,-17 -699,-6 -24,67 -8,562 -8,681 146,18 547,18 692,-4 0,-114 0,-228 0,-342l-12 -252c0,-62 19,-43 26,-51z"/>
      <path class="fil5" d="M7645 9794c55,-19 43,5 67,-56l-708 2c31,114 17,556 8,700l698 5 -7 -618 -58 -33z"/>
      <path class="fil6" d="M12389 8139l-9 -728 738 5 -7 723 -84 4c23,33 0,18 -127,17l-347 0c-83,0 -131,-14 -175,27l736 0 1 726 -737 -6c24,33 -65,30 175,29 149,-1 483,19 574,-17 16,-91 6,-277 6,-379 0,-66 0,-132 0,-198l-11 -144c-15,-79 13,-22 11,-203 -1,-94 17,-517 -15,-579l-23 -20c-49,-17 -447,-6 -526,-6l-149 -2c-48,12 -22,6 -40,23 -22,54 -11,113 -11,172 0,98 -23,483 20,556z"/>
      <path class="fil7" d="M7724 9721l-4 737c43,-47 24,-638 23,-690 48,156 -20,653 32,682l-8 -722 727 -1 0 685 -2 25 -2 15c35,-15 7,-6 32,-6 3,0 18,7 23,10l-6 -732 728 10c-22,-27 9,-11 -32,-23l-685 7c-2,-4 -8,4 -11,6 -16,18 -11,0 -19,37l-7 638c0,-2 -3,8 -5,12l-14 -684c-6,-5 14,-19 -82,-19l-645 20 -43 -7c-11,-6 -11,-11 -39,-15 -2,0 -45,0 -49,0l-282 4c-125,0 -338,-28 -358,28 156,-42 534,6 728,-17z"/>
      <path class="fil7" d="M10081 11266l719 0 6 723 -725 -2 0 -721zm-46 -11l3 736c-158,-3 -609,20 -732,-12 24,27 -34,16 45,27 232,0 523,-16 743,-5 21,1 690,20 701,-5 2,-5 7,-5 11,-7 22,-26 15,-652 15,-677 -3,-93 3,-23 -21,-46 -24,-25 13,-9 -31,-16l-527 -1c-131,0 -142,-18 -161,17 -15,13 -24,-7 -22,78 1,32 5,67 6,100 2,115 9,462 -7,534 0,-123 0,-246 0,-369 0,-95 18,-321 -23,-354z"/>
      <path class="fil7" d="M10085 10452l-10 -725 730 0 -2 677 0 24 -6 21 -36 2c2,2 26,41 36,-2l55 8 -5 -736 687 6 12 4 29 5 -29 -34 -544 8c-46,-1 -125,-17 -155,11 -39,42 -22,102 -20,172 2,60 1,121 1,182 0,99 9,242 -6,332 -2,-90 23,-647 -17,-680 -13,-11 -3,-10 -35,-17 -16,-3 -31,-1 -48,-2 -32,0 -67,1 -100,1l-536 11c-2,-4 -8,4 -11,7 -34,70 -11,269 -11,364 0,66 1,132 0,198 0,50 -14,140 21,163z"/>
      <path class="fil8" d="M11625 10502l708 1c-15,104 -18,616 4,710l-713 -5 1 -706zm-6 723c92,10 694,25 724,-7 27,-29 16,-639 4,-722 -86,-23 -622,-17 -729,-5 -18,86 -19,654 1,734z"/>
      <path class="fil8" d="M13165 11212c27,-120 12,-564 5,-708l709 -1 -5 704 -709 5zm-10 -717c-12,86 -23,695 4,723 30,30 635,17 734,8l-6 -736c-101,-12 -654,-17 -732,5z"/>
      <path class="fil6" d="M7715 11260l14 738 -736 -17c33,47 84,38 180,35 128,-3 482,14 556,-18 3,-6 11,-5 18,-41l3 -529c5,-235 2,-151 -35,-168 -45,-36 -285,-14 -361,-14l-281 -2c-71,2 -42,-16 -67,23l709 -7z"/>
      <path class="fil9" d="M7009 9671c36,-171 -29,-497 19,-700l669 6c29,109 12,492 12,630 -61,1 -14,-6 3,63l-703 1zm-16 0c176,42 526,-9 736,19l-10 -744 -724 10 -2 715z"/>
      <path class="fil9" d="M7645 9794l58 33 7 618 -698 -5c9,-144 23,-586 -8,-700l708 -2c-24,61 -12,37 -67,56zm75 664l4 -737c-194,23 -572,-25 -728,17l-1 716 725 4z"/>
      <path class="fil6" d="M6225 11997c56,29 585,26 669,19l68 -28 -737 9 6 -738 723 8c-29,-33 -9,-21 -77,-21 -127,-1 -593,-11 -646,13 -42,33 -31,79 -29,185 1,73 -16,517 23,553z"/>
      <path class="fil10" d="M6998 10497l714 3 8 714 -722 2 0 -719zm554 734c34,0 147,10 168,-15 24,-26 14,-671 9,-722 -93,-23 -625,-19 -735,-4 -18,106 -24,644 3,736l555 5z"/>
      <path class="fil7" d="M8489 11266l5 31 -1 26 2 669 -728 -4 7 -722c-31,35 -16,74 -15,178 2,75 -8,502 8,544l81 19c32,0 68,0 101,0 60,0 121,-1 181,-1 108,0 281,23 365,-14 46,-5 -20,-5 30,0 4,0 23,6 28,8 -12,-25 6,-28 -14,-20 -38,-35 -12,11 -29,-40l-2 -512c-2,-181 24,-143 -19,-162 -39,-37 -510,-22 -624,-19l-67 16 691 3z"/>
      <path class="fil6" d="M12380 9684c23,22 -14,10 40,23l529 -1c240,2 148,10 169,-28 41,-79 12,-260 12,-363 0,-72 18,-337 -18,-361 -17,-30 -2,-29 -19,0l19 0 6 724 -738 6c35,-175 0,-526 12,-729l16 1c-14,-31 -2,-32 -16,-1 -25,26 -7,-14 -19,32 -4,18 -3,29 -3,47l10 650z"/>
      <path class="fil11" d="M7767 11988l728 4 -2 -669c-7,8 -26,-11 -26,51l12 252c0,114 0,228 0,342 -145,22 -546,22 -692,4 0,-119 -16,-614 8,-681 31,-11 650,-20 699,6l-5 -31 -691 -3 -24 3 -7 722z"/>
      <path class="fil11" d="M9326 11296c26,-13 -15,-5 42,-15l654 -4 6 701c-170,-13 -579,49 -709,-22l7 -660zm-20 683c123,32 574,9 732,12l-3 -736 -730 10 1 714z"/>
      <path class="fil10" d="M7721 8189l-6 715 -714 -2 -4 -712 724 -1zm0 0c-57,-26 -693,-13 -724,-8 -23,86 -21,637 -3,734l733 4c13,-97 3,-265 3,-363 0,-59 11,-319 -9,-367z"/>
      <path class="fil7" d="M14702 10452l-3 -43 -4 -682 727 -2 -3 726c45,-49 19,-684 12,-730 -86,-30 -426,-11 -568,-12 -45,-1 -142,-16 -168,18 -33,71 -9,418 -10,562 -2,154 -31,138 17,163z"/>
      <path class="fil12" d="M13927 9668l29 6c-46,-175 -18,-501 -14,-691 108,-11 589,-25 675,0 44,78 19,558 8,681 -127,14 -449,-27 -532,15l560 0 -6 -729 -721 5 1 713z"/>
      <path class="fil11" d="M10073 10537l45 -21c24,-7 12,-5 42,-7l264 1c121,0 250,0 370,-5l-1 705 -716 -12c30,37 -14,27 82,29l650 -1 -8 -735c-125,-1 -252,0 -377,0 -192,0 -340,-33 -351,46z"/>
      <path class="fil7" d="M11615 11980c28,39 -16,9 32,25l328 1c101,0 284,12 373,-7 41,-86 17,-416 20,-571 6,-213 -1,-153 -29,-172l0 733 -724 -9z"/>
      <path class="fil9" d="M10852 10457l724 -7 -1 -714 -29 -5c56,152 -14,518 14,706l-674 5c-50,-88 6,-530 -32,-712l680 -3 -687 -6 5 736z"/>
      <path class="fil12" d="M14699 10409c26,-48 16,-104 16,-169 0,-130 9,-401 -7,-497l686 -1c41,190 5,513 -2,711l27 -2 3 -726 -727 2 4 682z"/>
      <path class="fil13" d="M10750 8503l-719 11 -1 -723 723 6c-48,-30 -101,-18 -169,-18 -131,1 -495,-15 -566,13l-5 722c38,9 683,35 737,-11z"/>
      <path class="fil13" d="M13924 10493c138,10 609,19 723,-6l8 731 -726 -1 -5 -724zm0 735c147,9 632,26 738,-8l-5 -734 -739 2 6 740z"/>
      <path class="fil7" d="M10847 9685c41,32 98,15 171,15 135,-1 424,-6 531,10l27 -39 -729 14 11 -736c-34,26 -12,-12 -30,36l1 330c0,97 -14,307 18,370z"/>
      <path class="fil11" d="M10085 10452l676 -1 36 -2 6 -21c-110,14 -605,38 -700,4l-9 -679c76,-32 253,-18 346,-18 122,0 238,-4 357,3l-4 632c4,33 2,17 10,34l2 -677 -730 0 10 725z"/>
      <path class="fil13" d="M13886 9669l-726 9 5 -729c-20,20 -11,-3 -22,36 -7,27 -6,654 11,709l686 1c82,-3 24,3 46,-26z"/>
      <path class="fil11" d="M7775 10450l715 2 2 -15c-72,21 -635,19 -720,5 24,-80 18,-59 17,-169l8 -453c-5,-32 -11,-43 -20,-74 102,-20 586,-24 683,-2 31,69 20,574 20,647l14 21 0 -685 -727 1 8 722z"/>
      <path class="fil13" d="M14652 9724l-7 732c27,-25 11,9 24,-35 4,-16 2,-32 2,-48l-7 -626c-1,-3 -5,-5 -5,-12 -1,-7 -5,-8 -7,-11 -81,-34 -259,-10 -366,-10 -71,0 -334,-32 -359,24l725 -14z"/>
      <path class="fil7" d="M6993 9671c28,43 -7,32 80,33l642 -9c3,-5 9,-3 14,-5 26,-24 20,-608 17,-673 -4,-109 8,-47 -27,-71l10 744c-210,-28 -560,23 -736,-19z"/>
      <path class="fil7" d="M12344 9721l-6 736c28,-24 12,8 25,-36l2 -628c-1,-25 -2,-25 -7,-47l-14 -25c-33,-23 -684,-12 -699,-9l-28 16 727 -7z"/>
      <path class="fil14" d="M6959 11212l-747 12 -5 -730 753 9c-26,-21 45,-18 -51,-22l-710 10 5 735c31,5 722,33 755,-14z"/>
      <path class="fil11" d="M13118 11180c-128,64 -547,32 -722,22l4 -691c141,-9 600,-25 714,9 -27,-37 18,-29 -81,-32l-282 2c-119,0 -243,-3 -368,2l8 732 722 1 5 -45z"/>
      <path class="fil7" d="M6227 9683c21,21 -9,12 38,21 4,0 42,-2 49,-2 38,-2 60,-4 100,-3l379 1c112,1 140,16 165,-24l-731 7 11 -731c-29,25 -11,-8 -23,34 -3,11 -3,36 -3,48l10 638c0,-2 3,7 5,11z"/>
      <path class="fil13" d="M14093 9679l-137 -5 -29 -6c32,45 7,26 177,26l480 1c54,-1 75,-1 84,-49l1 -529c1,-145 19,-140 -22,-167l6 729 -560 0z"/>
      <path class="fil14" d="M15436 11225l-742 -8c66,35 703,17 742,8l1 -734c-44,-10 -624,-23 -721,-7l-25 11 736 -2 9 732z"/>
    </g>
  </g>
</svg>